<svg version="1.1" id="Layer_1" xmlns="http://www.w3.org/2000/svg" xmlns:xlink="http://www.w3.org/1999/xlink" x="0px" y="0px"
	 width="100%" viewBox="0 0 192 192" enable-background="new 0 0 192 192" xml:space="preserve">
<path fill="#FFFFFF" opacity="1.000000" stroke="none" 
	d="
M0.999999,118.000000 
	C1.000000,104.312439 1.000000,90.624878 1.340599,76.765289 
	C2.596799,73.409973 3.073735,70.011612 4.509467,67.083351 
	C8.987276,57.950581 13.016157,48.441101 18.715107,40.099781 
	C27.603874,27.089668 39.567871,16.982243 53.857693,10.149331 
	C59.828342,7.294368 66.471710,5.864857 72.744339,3.607020 
	C73.982002,3.161523 74.922470,1.890377 76.000000,1.000000 
	C89.687561,1.000000 103.375122,1.000000 117.234711,1.340599 
	C120.590027,2.596799 123.988388,3.073736 126.916649,4.509470 
	C136.049423,8.987283 145.558899,13.016161 153.900223,18.715115 
	C166.910324,27.603880 177.017776,39.567863 183.850662,53.857693 
	C186.705597,59.828354 188.135147,66.471710 190.392990,72.744339 
	C190.838501,73.982002 192.109619,74.922478 193.000000,76.000000 
	C193.000000,89.687561 193.000000,103.375122 192.659393,117.234711 
	C191.403183,120.590027 190.926239,123.988388 189.490524,126.916641 
	C185.012711,136.049438 180.983826,145.558914 175.284866,153.900238 
	C166.396103,166.910324 154.432144,177.017776 140.142319,183.850662 
	C134.171677,186.705643 127.528297,188.135147 121.255653,190.392990 
	C120.017998,190.838470 119.077522,192.109619 118.000000,193.000000 
	C104.312439,193.000000 90.624878,193.000000 76.765289,192.659393 
	C73.409966,191.403198 70.011612,190.926254 67.083351,189.490509 
	C57.950581,185.012711 48.441101,180.983841 40.099796,175.284897 
	C27.089672,166.396149 16.982244,154.432144 10.149335,140.142319 
	C7.294367,134.171677 5.864860,127.528290 3.607013,121.255661 
	C3.161521,120.017998 1.890375,119.077530 0.999999,118.000000 
M67.076370,86.500008 
	C67.076370,97.595062 67.076370,108.690117 67.076370,119.928391 
	C73.936211,120.283684 80.252594,121.124077 86.499352,120.762299 
	C91.013016,120.500900 95.842972,119.425468 99.820587,117.349945 
	C112.182228,110.899651 117.470528,92.205307 111.778053,77.209206 
	C108.453972,68.452347 102.098595,63.089363 92.909637,62.301201 
	C84.536743,61.583027 76.053688,62.149063 67.076385,62.149063 
	C67.076385,70.294197 67.076385,77.897118 67.076370,86.500008 
M147.839218,71.281746 
	C152.440750,71.281746 157.042282,71.281746 161.690918,71.281746 
	C161.690918,67.934860 161.690918,65.228256 161.690918,62.493870 
	C146.583862,62.493870 131.852692,62.493870 117.085831,62.493870 
	C117.085831,65.535278 117.085831,68.248833 117.085831,71.539108 
	C122.882133,71.539108 128.283707,71.539108 134.103638,71.539108 
	C134.103638,88.028549 134.103638,103.933868 134.103638,119.805878 
	C137.954636,119.805878 141.344345,119.805878 145.007751,119.805878 
	C145.007751,105.009109 144.948364,90.551392 145.091400,76.095673 
	C145.107269,74.491577 146.277344,72.898895 147.839218,71.281746 
M54.984356,66.698982 
	C54.878788,65.273987 54.773220,63.848999 54.668686,62.437897 
	C50.954502,62.437897 47.691364,62.437897 43.910778,62.437897 
	C43.910778,64.316658 43.913116,65.934311 43.910408,67.551956 
	C43.889782,79.873405 43.934875,92.195442 43.824764,104.516098 
	C43.743500,113.608673 43.028027,122.481339 32.537888,125.938789 
	C35.255745,132.918594 36.542606,133.451279 42.528782,130.636795 
	C51.444763,126.444786 54.930733,119.010231 54.973484,109.619766 
	C55.037155,95.633438 54.986431,81.646599 54.984356,66.698982 
z"/>
<path fill="#000000" opacity="1.000000" stroke="none" 
	d="
M75.531342,1.000000 
	C74.922470,1.890377 73.982002,3.161523 72.744339,3.607020 
	C66.471710,5.864857 59.828342,7.294368 53.857693,10.149331 
	C39.567871,16.982243 27.603874,27.089668 18.715107,40.099781 
	C13.016157,48.441101 8.987276,57.950581 4.509467,67.083351 
	C3.073735,70.011612 2.596799,73.409973 1.340599,76.296631 
	C1.000000,51.073132 1.000000,26.146261 1.000000,1.000000 
	C25.687128,1.000000 50.374905,1.000000 75.531342,1.000000 
z"/>
<path fill="#000000" opacity="1.000000" stroke="none" 
	d="
M193.000000,75.531342 
	C192.109619,74.922478 190.838501,73.982002 190.392990,72.744339 
	C188.135147,66.471710 186.705597,59.828354 183.850662,53.857693 
	C177.017776,39.567863 166.910324,27.603880 153.900223,18.715115 
	C145.558899,13.016161 136.049423,8.987283 126.916649,4.509470 
	C123.988388,3.073736 120.590027,2.596799 117.703369,1.340599 
	C142.926865,1.000000 167.853729,1.000000 193.000000,1.000000 
	C193.000000,25.687128 193.000000,50.374905 193.000000,75.531342 
z"/>
<path fill="#000000" opacity="1.000000" stroke="none" 
	d="
M0.999999,118.468658 
	C1.890375,119.077530 3.161521,120.017998 3.607013,121.255661 
	C5.864860,127.528290 7.294367,134.171677 10.149335,140.142319 
	C16.982244,154.432144 27.089672,166.396149 40.099796,175.284897 
	C48.441101,180.983841 57.950581,185.012711 67.083351,189.490509 
	C70.011612,190.926254 73.409966,191.403198 76.296631,192.659393 
	C51.073124,193.000000 26.146250,193.000000 1.000000,193.000000 
	C1.000000,168.312866 1.000000,143.625092 0.999999,118.468658 
z"/>
<path fill="#000000" opacity="1.000000" stroke="none" 
	d="
M118.468658,193.000000 
	C119.077522,192.109619 120.017998,190.838470 121.255653,190.392990 
	C127.528297,188.135147 134.171677,186.705643 140.142319,183.850662 
	C154.432144,177.017776 166.396103,166.910324 175.284866,153.900238 
	C180.983826,145.558914 185.012711,136.049438 189.490524,126.916641 
	C190.926239,123.988388 191.403183,120.590027 192.659393,117.703369 
	C193.000000,142.926865 193.000000,167.853745 193.000000,193.000000 
	C168.312866,193.000000 143.625092,193.000000 118.468658,193.000000 
z"/>
<path fill="#5C5C5C" opacity="1.000000" stroke="none" 
	d="
M67.076378,86.000015 
	C67.076385,77.897118 67.076385,70.294197 67.076385,62.149063 
	C76.053688,62.149063 84.536743,61.583027 92.909637,62.301201 
	C102.098595,63.089363 108.453972,68.452347 111.778053,77.209206 
	C117.470528,92.205307 112.182228,110.899651 99.820587,117.349945 
	C95.842972,119.425468 91.013016,120.500900 86.499352,120.762299 
	C80.252594,121.124077 73.936211,120.283684 67.076370,119.928391 
	C67.076370,108.690117 67.076370,97.595062 67.076378,86.000015 
M82.826263,70.513527 
	C81.387878,70.720230 79.949493,70.926926 78.187126,71.180183 
	C78.187126,83.870499 78.131027,96.302711 78.290794,108.732140 
	C78.303940,109.755676 79.688446,111.543190 80.595650,111.652847 
	C89.775581,112.762405 98.943031,111.271332 101.402702,98.547325 
	C101.933136,95.803337 102.017395,92.939224 102.011261,90.131088 
	C101.980232,75.936638 97.710907,71.400879 82.826263,70.513527 
z"/>
<path fill="#5B5B5B" opacity="1.000000" stroke="none" 
	d="
M147.375671,71.291336 
	C146.277344,72.898895 145.107269,74.491577 145.091400,76.095673 
	C144.948364,90.551392 145.007751,105.009109 145.007751,119.805878 
	C141.344345,119.805878 137.954636,119.805878 134.103638,119.805878 
	C134.103638,103.933868 134.103638,88.028549 134.103638,71.539108 
	C128.283707,71.539108 122.882133,71.539108 117.085831,71.539108 
	C117.085831,68.248833 117.085831,65.535278 117.085831,62.493870 
	C131.852692,62.493870 146.583862,62.493870 161.690918,62.493870 
	C161.690918,65.228256 161.690918,67.934860 161.690918,71.281746 
	C157.042282,71.281746 152.440750,71.281746 147.375671,71.291336 
z"/>
<path fill="#5B5B5B" opacity="1.000000" stroke="none" 
	d="
M54.984367,67.179474 
	C54.986431,81.646599 55.037155,95.633438 54.973484,109.619766 
	C54.930733,119.010231 51.444763,126.444786 42.528782,130.636795 
	C36.542606,133.451279 35.255745,132.918594 32.537888,125.938789 
	C43.028027,122.481339 43.743500,113.608673 43.824764,104.516098 
	C43.934875,92.195442 43.889782,79.873405 43.910408,67.551956 
	C43.913116,65.934311 43.910778,64.316658 43.910778,62.437897 
	C47.691364,62.437897 50.954502,62.437897 54.668686,62.437897 
	C54.773220,63.848999 54.878788,65.273987 54.984367,67.179474 
z"/>
<path fill="#FBFBFB" opacity="1.000000" stroke="none" 
	d="
M83.240509,70.476517 
	C97.710907,71.400879 101.980232,75.936638 102.011261,90.131088 
	C102.017395,92.939224 101.933136,95.803337 101.402702,98.547325 
	C98.943031,111.271332 89.775581,112.762405 80.595650,111.652847 
	C79.688446,111.543190 78.303940,109.755676 78.290794,108.732140 
	C78.131027,96.302711 78.187126,83.870499 78.187126,71.180183 
	C79.949493,70.926926 81.387878,70.720230 83.240509,70.476517 
z"/>
</svg>